<svg xmlns="http://www.w3.org/2000/svg" viewBox="0 0 512 512">
  <title>Suvakrio Group</title>
  <rect width="512" height="512" rx="112" fill="#ffffff"/>
  <g transform="translate(256 256) scale(0.78)">
    <path fill="#13234B" d="M161.21 -8.54 A8 8 0 0 0 173.21 -15.47 L173.21 -80.37 A34 34 0 0 0 156.21 -109.81 L17 -190.19 A34 34 0 0 0 -17 -190.19 L-156.21 -109.81 A34 34 0 0 0 -173.21 -80.37 L-173.21 -35.34 A16 16 0 0 0 -165.21 -21.48 L-27.52 58.01 A26 26 0 0 0 8 48.5 L8 48.5 A26 26 0 0 0 -1.52 12.98 L-107.21 -48.04 A12 12 0 0 1 -113.21 -58.43 L-113.21 -58.43 A12 12 0 0 1 -107.21 -68.82 L-6 -127.25 A12 12 0 0 1 6 -127.25 L107.21 -68.82 A12 12 0 0 1 113.21 -58.43 L113.21 -40.87 A8 8 0 0 0 117.21 -33.95 L161.21 -8.54Z"/>
    <path fill="#FF6A1A" d="M-161.21 8.54 A8 8 0 0 0 -173.21 15.47 L-173.21 80.37 A34 34 0 0 0 -156.21 109.81 L-17 190.19 A34 34 0 0 0 17 190.19 L156.21 109.81 A34 34 0 0 0 173.21 80.37 L173.21 35.34 A16 16 0 0 0 165.21 21.48 L27.52 -58.01 A26 26 0 0 0 -8 -48.5 L-8 -48.5 A26 26 0 0 0 1.52 -12.98 L107.21 48.04 A12 12 0 0 1 113.21 58.43 L113.21 58.43 A12 12 0 0 1 107.21 68.82 L6 127.25 A12 12 0 0 1 -6 127.25 L-107.21 68.82 A12 12 0 0 1 -113.21 58.43 L-113.21 40.87 A8 8 0 0 0 -117.21 33.95 L-161.21 8.54Z"/>
  </g>
</svg>
